<?xml version="1.0" encoding="iso-8859-1"?>
<!-- Generator: Adobe Illustrator 16.0.0, SVG Export Plug-In . SVG Version: 6.00 Build 0)  -->
<!DOCTYPE svg PUBLIC "-//W3C//DTD SVG 1.1//EN" "http://www.w3.org/Graphics/SVG/1.1/DTD/svg11.dtd">
<svg version="1.1" id="Capa_1" xmlns="http://www.w3.org/2000/svg" xmlns:xlink="http://www.w3.org/1999/xlink" x="0px" y="0px"
	 width="485.211px" height="485.211px" viewBox="0 0 485.211 485.211" style="enable-background:new 0 0 485.211 485.211;"
	 xml:space="preserve">
<g>
	<path d="M422.961,197.892c0.686-5.274,1.601-10.487,1.601-15.936c0-66.989-54.287-121.304-121.307-121.304
		c-39.623,0-74.477,19.28-96.602,48.687c-7.967-1.925-16.169-3.197-24.698-3.197c-58.639,0-106.139,47.501-106.139,106.141
		c0,1.657,0.413,3.139,0.472,4.795C32.31,230.02,0,270.238,0,318.416C0,377.059,47.504,424.56,106.139,424.56h257.77
		c67.02,0,121.303-54.277,121.303-121.302C485.211,257.828,459.947,218.676,422.961,197.892z M242.606,363.906
		c-50.167,0-90.978-40.804-90.978-90.976c0-50.164,40.812-90.975,90.978-90.975v-30.327l75.816,45.49l-75.816,45.487v-30.324
		c-33.451,0-60.651,27.186-60.651,60.648c0,33.463,27.2,60.654,60.651,60.654c33.435,0,60.648-27.191,60.648-60.654h30.331
		C333.586,323.103,292.772,363.906,242.606,363.906z"/>
</g>
<g>
</g>
<g>
</g>
<g>
</g>
<g>
</g>
<g>
</g>
<g>
</g>
<g>
</g>
<g>
</g>
<g>
</g>
<g>
</g>
<g>
</g>
<g>
</g>
<g>
</g>
<g>
</g>
<g>
</g>
</svg>
